<svg id="Layer_1" data-name="Layer 1" xmlns="http://www.w3.org/2000/svg" viewBox="0 0 690 308.08"><defs><style>.cls-1{fill:#8b5e3c;}.cls-2{fill:#be1e2d;}.cls-3{fill:#f47521;}.cls-4{fill:#fff;}</style></defs><title>logoWeb</title><path class="cls-1" d="M15.79,161.18A10.82,10.82,0,0,0,5,172V303.25A10.82,10.82,0,0,0,15.79,314H327.36V161.18Z" transform="translate(-5 -5.96)"/><path class="cls-2" d="M684.21,161.18H327.36V314H684.21A10.82,10.82,0,0,0,695,303.25V172A10.82,10.82,0,0,0,684.21,161.18Z" transform="translate(-5 -5.96)"/><path class="cls-3" d="M48.95,122.62c.29,3.14,3.14,4.7,6,4.7,8.12,0,10.83-.29,13.83-.29,6,0,7.84,1.71,7.84,6v10c0,4.28-1.43,5.7-5.7,5.7H33.27c-8.55,0-8.55-8.55-8.55-11.4V58.9c0-5.7,0-11.4,8.55-11.4H70c3.56,0,6.7,1.43,6.7,4.28V63.89c0,3.42-2.85,3.56-6.41,3.56-5.56,0-10-.29-13.54-.29-7.84,0-7.84,2.85-7.84,7.41,0,9.27,0,11.69,7.13,11.69,8.84,0,10.26-.29,13.54-.29,5,0,5.27,5,5.27,6.56v9.12c0,4.28-3,4.56-6.56,4.56-7.27,0-11.83-.29-14.82-.29-4.56,0-4.56,2-4.56,6.7Z" transform="translate(-5 -5.96)"/><path class="cls-3" d="M151.72,141.57c0,6.56-4.42,7.13-12.54,7.13h-7.55c-8.84,0-4.42-21.38-10.12-21.38H110.1c-5.7,0-2.42,21.38-11,21.38h-6.7c-7.41,0-11.83-.57-11.83-7.13,0-8.55,3.42-16.11,14.54-82.67,1.14-7.13,4-11.4,9.69-11.4h22c5.7,0,8.55,4.28,10,11.4C146.45,117.34,151.72,133,151.72,141.57Zm-41.48-37.92c0,2.28,1,2.28,5.56,2.28s5.56,0,5.56-2.14a14.77,14.77,0,0,0-.14-2.28c-1.71-14-2.28-31.22-5.42-31.22s-4,17.11-5.42,31.22A12.31,12.31,0,0,0,110.24,103.66Z" transform="translate(-5 -5.96)"/><path class="cls-3" d="M185.51,46.78c11.83,0,19.81,2.14,19.81,6.13v11c0,1.57-.57,4.28-5.42,4.28h-1.14c-2.28,0-7.41-1.57-11.55-1.57-3.42,0-6.13,1.14-6.13,5.7s1.28,6.7,6.84,11.26c17,14,20.38,23.95,20.38,35.49,0,6.56-.14,12.54-3.85,18.1-4.7,7.13-12.12,9.84-15.25,10.69a60,60,0,0,1-13.68,1.57c-10.55,0-20.81-2-20.81-7.7v-11c0-1.71,1.43-3.42,5.27-3.42s6.84,2.14,15,2.14c4,0,9.41-3.14,9.41-7.55,0-3.28-.14-5.7-8.84-14.25C162.27,94.68,156,88.69,156,77,156,48.92,174.1,46.78,185.51,46.78Z" transform="translate(-5 -5.96)"/><path class="cls-3" d="M249.65,138.3c-.29,5.42-.57,10.41-8.55,10.41H234c-8.55,0-8.55-5.7-8.55-11.4V72.16c0-3.56-.71-4.42-3.71-4.42-1,0-2.42.14-4.13.14-3.56,0-6.41-.57-6.41-4V51.77c0-2.85,3.14-4.28,6.7-4.28H257.2c3.56,0,6.7,1.43,6.7,4.28V63.89c0,3.42-2.85,4-6.41,4-1,0-2.28-.14-4-.14-3.56,0-3.85.86-3.85,4.42Z" transform="translate(-5 -5.96)"/><path class="cls-3" d="M453.34,138.72c-2.71,9.84-6,10-11.12,10h-7.84c-8.13,0-9.27-4.13-10.83-11.4-3-14.4-14.4-82-14.4-86.1,0-2.85.43-3.71,3.56-3.71h15.39c3.71,0,4.42,2.14,5,6.13l9.27,61.72c0,.43.14.71.57.71s.57-.29.71-.71c.14-.71,4.56-33.21,4.56-35.49-1.14-7.55-3.85-23.38-4.13-26.66a10.07,10.07,0,0,1-.14-2c0-2.57.86-3.71,3.42-3.71s6.56.29,9.41.29c1.28,0,11-.29,12.26-.29,2.28,0,3.28,1,3.28,3.71,0,.57-.14,1.28-.14,2-.29,3.28-2.42,19.24-2.42,26.8,0,2.57,6.41,35.35,6.41,35.35,0,.43.14.71.57.71s.57-.29.71-.71l6.13-62.15c.14-3.56,1.43-5.7,4.7-5.7h16.68c2.28,0,2.71,1,2.71,3.42,0,4.42-9.55,72-12.4,86.38-1.28,6.84-2,11.4-9.26,11.4H475.72c-5.42,0-7.84,0-10.12-10-2-8.41-4.56-19-6.27-19C458.33,119.77,455.2,131.88,453.34,138.72Z" transform="translate(-5 -5.96)"/><path class="cls-3" d="M535.88,122.62c.29,3.14,3.14,4.7,6,4.7,8.13,0,10.83-.29,13.83-.29,6,0,7.84,1.71,7.84,6v10c0,4.28-1.43,5.7-5.7,5.7H520.2c-8.55,0-8.55-8.55-8.55-11.4V58.9c0-5.7,0-11.4,8.55-11.4H557c3.56,0,6.7,1.43,6.7,4.28V63.89c0,3.42-2.85,3.56-6.41,3.56-5.56,0-10-.29-13.54-.29-7.84,0-7.84,2.85-7.84,7.41,0,9.27,0,11.69,7.13,11.69,8.84,0,10.26-.29,13.54-.29,5,0,5.27,5,5.27,6.56v9.12c0,4.28-3,4.56-6.56,4.56-7.27,0-11.83-.29-14.82-.29-4.56,0-4.56,2-4.56,6.7Z" transform="translate(-5 -5.96)"/><path class="cls-3" d="M598.17,46.78C610,46.78,618,48.92,618,52.91v11c0,1.57-.57,4.28-5.42,4.28h-1.14c-2.28,0-7.41-1.57-11.55-1.57-3.42,0-6.13,1.14-6.13,5.7S595,79,600.59,83.56c17,14,20.38,23.95,20.38,35.49,0,6.56-.14,12.54-3.85,18.1-4.7,7.13-12.12,9.84-15.25,10.69a60,60,0,0,1-13.68,1.57c-10.55,0-20.81-2-20.81-7.7v-11c0-1.71,1.43-3.42,5.27-3.42s6.84,2.14,15,2.14c4,0,9.41-3.14,9.41-7.55,0-3.28-.14-5.7-8.84-14.25-13.26-13-19.53-19-19.53-30.65C568.66,48.92,586.76,46.78,598.17,46.78Z" transform="translate(-5 -5.96)"/><path class="cls-3" d="M662.31,138.3c-.29,5.42-.57,10.41-8.55,10.41h-7.13c-8.55,0-8.55-5.7-8.55-11.4V72.16c0-3.56-.71-4.42-3.71-4.42-1,0-2.42.14-4.13.14-3.56,0-6.41-.57-6.41-4V51.77c0-2.85,3.14-4.28,6.7-4.28h39.34c3.56,0,6.7,1.43,6.7,4.28V63.89c0,3.42-2.85,4-6.41,4-1,0-2.28-.14-4-.14-3.56,0-3.85.86-3.85,4.42Z" transform="translate(-5 -5.96)"/><path class="cls-4" d="M80.05,242.71c0-2-.54-3-5.41-5a8.4,8.4,0,0,0-2.43-.81,13.39,13.39,0,0,0-2.57.41c-8.38,1.62-15.55,2.84-22.85,4.6-.68,0-.95-.14-.95-.68,2.16-8.38,6.49-15.68,10.55-23.53a4.93,4.93,0,0,0,.27-2,2,2,0,0,1,1.49-2.16c5.14-1.08,10.28-3.11,16-3.79,3.11-.41,5.95-1.62,8.92-1.62,4.87,0,5.14,3,6.35,3a11.1,11.1,0,0,0,5.68-1.49c.81-.41.81-.54.81-2.16a5.59,5.59,0,0,0-.54-2.84c-3.65-4.87-8.52-5-12.17-5-10.14,0-21.9,3.92-32.18,6.49a34.59,34.59,0,0,0-3.92,1.35c-10.55,4.19-14.06,5.54-21,7.17-.54.13-.68.27-.95.95-.54,1.49-1.89,2.7-1.89,4.46,0,1.08,2.84,4.6,5.27,4.6,2,0,11.49-5.14,12.84-5.14.41,0,.54,0,.54.68-3.24,7.71-6.63,16.77-10,24.74a1.76,1.76,0,0,1-1.35,1.22c-2.84.81-5.41.95-8.92,2.3-.68.27-.81.41-.81.81,0,.81.81,1.89.81,2.3a4.35,4.35,0,0,0,4.46,4.06c1.22,0,2,.68,2,1.35a4.76,4.76,0,0,1-.27,1.62c-2.3,8-5.54,17.58-5.54,26.1a1.47,1.47,0,0,0,.95,1.62,17.22,17.22,0,0,0,8.92,2.43,1.89,1.89,0,0,0,1.89-1.89c0-1.22-.27-.95-.27-3.65A48.91,48.91,0,0,1,35,273.81a10.85,10.85,0,0,1,.95-2.7c2.43-5.54,3-12.17,5.81-17.85.41-.95.54-1.08,1.62-1.35,11.49-2.84,23.53-5,35.15-7.3C79.24,244.47,80.05,244.2,80.05,242.71Z" transform="translate(-5 -5.96)"/><path class="cls-4" d="M118.72,275.57c1.62-10.68,5.27-20.69,9.87-30.56a7.38,7.38,0,0,0,.81-3.92c0-.81-.54-1.76-2.7-2.43-.95-.27-2.16-1.35-3.25-1.35a5.65,5.65,0,0,0-3.11.81c-1.62.95-1.76,1.22-2.43,3-4.33,11.22-11.76,21.23-20.15,30.29-2.3,2.43-2.3,3.52-7.17,7.84a6.77,6.77,0,0,1-3,1.35,2.29,2.29,0,0,1-1.89-1.89,17.23,17.23,0,0,1,.27-3.11c1.35-9.87,7-23.12,10.14-35.15,1.08-4.19,2.84-5.68,3.92-6.35,2-1.35,2.7-2.84,2.7-3.92,0-1.49-1.08-2.43-1.49-3.38-.68-1.49-3.25-2.16-4.6-2.16a6.48,6.48,0,0,0-5.81,3.52c-5.14,8.79-6.63,17.31-9.46,25.42-1.22,3.52-1.22,4.87-2.3,8.52-1.35,4.6-3.11,10.55-3.11,15.41a34.92,34.92,0,0,0,.68,5.81c.27,1.35,1.62,2.7,4.06,4.19A20.75,20.75,0,0,0,88.84,290c.54,0,.68,0,1.76-.54,5.68-2.84,10.55-7.71,15.14-13.12.54-.68,1.35-1.62,1.89-1.62s.54.41.54.81c0,1.35-.41,5.81-.41,9.19a21.32,21.32,0,0,0,1.35,8.11c.81,2,.81.95,3.38,2.57,1.49.95,3.24,2,5.14,2a3.58,3.58,0,0,0,1.89-.41,3.3,3.3,0,0,0,.81-2.43c0-3-2.43-5.68-2.43-9.06A69.64,69.64,0,0,1,118.72,275.57Z" transform="translate(-5 -5.96)"/><path class="cls-4" d="M172.94,225c-2.84-3-5.81-4.87-13.25-4.87-2.57,0-8.11,2.43-12,8.65a36.77,36.77,0,0,0-4.87,16.5c0,2.7,2.43,23,4.33,31.91a20.6,20.6,0,0,1,.68,4.19,1.24,1.24,0,0,1-1.35,1.08c-.68,0-1.35-.27-2.7-1.49-4.06-3.65-5.68-8.79-8.79-13-1.22-1.62-2.43-1.89-5.14-1.89s-4.87,3-4.87,5a5.7,5.7,0,0,0,.81,2c4.46,7.44,10.82,14.47,19.74,18.12a11,11,0,0,0,3.38.54c3.65,0,6.08-2.43,8.52-4.87a3.43,3.43,0,0,0,1.08-2.43c0-5.54-3.11-20.69-4.33-30.83-.27-1.76-.95-7.84-.95-8.65a21.8,21.8,0,0,1,.27-3.52c1.08-6.22,7.3-13.93,8.25-13.93a4,4,0,0,1,3,1.89,8.61,8.61,0,0,1,.95,3.65c0,2.3-1.08,4.19-2.3,6.22a2.16,2.16,0,0,0-.41,1.08,5.15,5.15,0,0,0,2,4.33,9.12,9.12,0,0,0,4.73,1.76c.68,0,.81-.13,1.89-1.49a17.84,17.84,0,0,0,3.92-11.22C175.5,231.08,174.83,227,172.94,225Z" transform="translate(-5 -5.96)"/><path class="cls-4" d="M207.55,207.83c3,0,6.22-3.65,8.65-6.63a3.92,3.92,0,0,0,.68-2.43,6.32,6.32,0,0,0-1.62-4.46c-.95-1.08-3.52-1.76-5.68-1.76-2.84,0-5.27.68-6.63,2.3a9.43,9.43,0,0,0-1.76,5.68,10.78,10.78,0,0,0,.95,4.6A6.35,6.35,0,0,0,207.55,207.83Z" transform="translate(-5 -5.96)"/><path class="cls-4" d="M304.22,233.79c-2.16-.14-2.84-1.35-4.87-1.35-1.76,0-2.3.41-4.73,5.54-3,6.35-13,11.76-31.23,37.72-.95,1.35-1.49,1.76-2.3,1.76-.41,0-.41-.81-.41-1.35a89,89,0,0,1,2.7-9.46,209.5,209.5,0,0,1,9.6-21.09,62.59,62.59,0,0,1,8.65-12.17,9.73,9.73,0,0,0,3-6.35,8.2,8.2,0,0,0-.68-2.43c-.54-1.22-2.3-2-5.41-2a7.06,7.06,0,0,0-4.73,1.35c-1.22,1.08-1.08,1.35-2.16,3-1.62,2.47-3,4.74-4.3,6.94a15.27,15.27,0,0,0-6.51-1.26c-3.11,0-6.22.41-11.63.41-3.92,0-5.68-4.06-6.9-7.44-.41-1.08-.81-1.35-1.89-2.3a10.65,10.65,0,0,0-7.17-2.57c-5.95,0-11.63,6.35-16,12.44-1.35,1.89-1.35,1.22-3.24,4.06-6.22,9.33-11.76,19.06-11.76,30.15a33.25,33.25,0,0,0,.28,4.26,7.57,7.57,0,0,0-1-.07c-2.16,0-3.11.68-6.35,3-5.41,3.79-6.9,4.6-9.87,4.6-2.3,0-2.43-3.11-2.43-4.33,0-2,.95-7.17,3.24-13.25,1.89-5,5.68-14.2,8-19.2,3.11-6.62,8.65-10,8.65-17.17a2.3,2.3,0,0,0-1.08-2.16,6.77,6.77,0,0,0-4.06-1.08c-2.57,0-5.41.81-6.76,3.65-5,10.41-8.92,20.15-13.12,30-.81,1.89-1.35,4.19-2.3,6.76a30.58,30.58,0,0,0-2.16,11,20.4,20.4,0,0,0,.68,5.68c1.49,5,6.08,10.68,10.14,10.68,6.08,0,11.09-3.92,13.93-6.49l5.54-5.14.35-.35c.1.3.21.6.32.9,1.22,3.11,5,6.08,10.14,8.52a7.69,7.69,0,0,0,3.24.68c4.73,0,8.38-3.92,12.17-8,8.65-9.19,13.52-21.77,17-36.24.27-.95.54-1.08,1.62-1.08a32.4,32.4,0,0,0,5.27-.41c3.52-.54,7.44-1.89,10.14-2.3l.19,0c-1.93,3.77-3.66,7.59-5.61,12.06-2.3,5.27-6.08,14.47-6.63,18.39-.41,3-1.62,3.92-1.62,8.11a7.6,7.6,0,0,0,.95,3.92c1.76,2.16,8.11,6.22,9.74,6.22,1.22,0,3.92-.27,5-1.49,1.89-2,3-1.89,5.81-5.95,3.24-4.6,6.9-9.19,12.44-16.5.41-.54.54-.54.81-.54s.41.27.41.54-1.22,2.7-1.22,10.68c0,3.38.68,6.22,2.3,8.38,1.76,2.43,3.38,3,5.27,4.73,1.62,1.49,5.95,1.89,7,1.89a3.5,3.5,0,0,0,3.52-3.25c0-1.35-.95-2.3-2-3.11s-4.33-2.43-4.73-4.87a24.82,24.82,0,0,1-1.08-5.81A62.64,62.64,0,0,1,296.1,261c2-6.9,4.6-12,9.46-20a10.66,10.66,0,0,0,1.35-3.52C306.92,235.81,305.7,233.92,304.22,233.79Zm-83,41c-1.08,1.62-1.35,2-2.3,2.43a4.57,4.57,0,0,1-2.57,1.08,2,2,0,0,1-1.22-.27,12.58,12.58,0,0,1-3.25-4.46,4.22,4.22,0,0,1-.41-1.89c0-15.82,12.71-32.58,16.9-37.86.68-.95,2-1.62,2.57-2.3a3.32,3.32,0,0,1,2-1.35c.54,0,.95.95,1.35,2.3a4.27,4.27,0,0,0,1.08,2,2,2,0,0,1,.81,1.49,20.94,20.94,0,0,1,.14,2.84C236.34,252.45,229,263,221.2,274.75Z" transform="translate(-5 -5.96)"/><path class="cls-4" d="M409.13,291.25c-1.35-.68-2-1.35-3.92-3.25-8.92-8.92-18.52-22.71-22.31-30.42-1.08-2.3-.81-3.25-2.3-6.35a8.5,8.5,0,0,1-1.08-3.65c0-1.22.27-1.62,1.89-2.43,7.17-3.65,13.79-6.9,20.15-10.68a120.74,120.74,0,0,0,31.77-26.91c1.22-1.49,1.22-1.76,1.22-2a2.35,2.35,0,0,0-.81-1.49c-.41-.41-1.22-.27-1.89-.81a11.77,11.77,0,0,0-7-2.57c-.54,0-.68,0-1.35.81-10.82,13-24.88,23.53-43,32.45-2.7,1.35-2.43.81-3.79,1.35a8.65,8.65,0,0,1-2.84.68c-.95,0-.95-.13-.95-.68a169.22,169.22,0,0,1,15-27.45,4.72,4.72,0,0,0,.95-2,4,4,0,0,0-.95-2.84c-.81-.81-2.3-.95-3.25-1.35-1.62-.68-1.08-1.08-2.16-1.62a3.17,3.17,0,0,0-1.49-.27c-2.3,0-3.79,2.43-5.14,3.38-.54.41-.68.27-1.89,2.57-8.79,16.63-22.58,46.24-31.5,74.77a11.29,11.29,0,0,0-.68,3.92c0,1.62,1.49,2.3,3.92,3.25s2.16,2.3,3.52,2.3a4,4,0,0,0,2.43-.81c2.3-1.49,2.43-1.89,2.57-2.84,2.16-12.71,7-25,12.84-36.51.13-.27.27-.54.68-.54s.41.13.54.68a101.69,101.69,0,0,0,16.36,31.37c2.57,3.24,5.95,6.62,9.06,10.28s8.65,8.92,15.41,8.92c2.57,0,1.22-.68,3.65-.95a2.33,2.33,0,0,0,2-2.57C414.81,294.77,412.65,293,409.13,291.25Z" transform="translate(-5 -5.96)"/><path class="cls-4" d="M448.34,207.83c3,0,6.22-3.65,8.65-6.63a3.92,3.92,0,0,0,.68-2.43,6.32,6.32,0,0,0-1.62-4.46c-.95-1.08-3.52-1.76-5.68-1.76-2.84,0-5.27.68-6.63,2.3a9.43,9.43,0,0,0-1.76,5.68,10.78,10.78,0,0,0,.95,4.6A6.35,6.35,0,0,0,448.34,207.83Z" transform="translate(-5 -5.96)"/><path class="cls-4" d="M577.59,226.22a19.3,19.3,0,0,0-5-.95,11.79,11.79,0,0,0-3.11.68c-1.22.41-1.89,1.08-3.79,3.11A378,378,0,0,0,535,266.64c-.68.95-.81,1.08-.95,1.08s-.27-.13-.27-.27a18.72,18.72,0,0,1,1.22-2.7c10.14-21.5,20.82-49.08,33-65.85,1.08-1.49,1.35-2.16,2.57-3.65,3.52-4.33,6.35-6.49,6.35-10a3.88,3.88,0,0,0-1.22-3.38,6.21,6.21,0,0,0-3.79-2c-.68,0-1.49-.27-2.84-.27a3.46,3.46,0,0,0-3.52,1.89c-6.62,13.25-14.2,25.69-19.88,37-8.08,16.06-15.34,30.44-20.41,43.82a2.93,2.93,0,0,0-1.36-.42c-3.79,0-10.55,4.73-16.5,9.19-6.63,5-13,8.52-19.2,8.52-1.22,0-2.3-1.08-2.3-2.84,0-3.38,3.11-12.3,7.84-20.69a106.93,106.93,0,0,1,16.5-21.77c1.08-1.08,1.35-1.35,2.16-1.35s1.08.81,1.08,1.35c0,2.16-3,5.41-3,8.11a3.58,3.58,0,0,0,1.49,3l3.52,2.57a4.13,4.13,0,0,0,2.7.95c1.76,0,2.57-.95,2.57-2,0-4.73,4.19-11.09,4.6-12.71a3,3,0,0,0,.14-.95,8.29,8.29,0,0,1-.27-2c0-1.08,0-1.35-.54-1.89a21.6,21.6,0,0,0-14.06-5.68,3.67,3.67,0,0,0-2.16.41,37.31,37.31,0,0,0-10.71,8.73,10.93,10.93,0,0,0-4.7-1.43,4.2,4.2,0,0,0-1.49.68,65.44,65.44,0,0,1-18.12,6.76,31.73,31.73,0,0,1-3.38.54c-.27,0-.54-.14-.54-.41a60,60,0,0,1,3.11-8.38c4.33-9.19,10.82-18.39,12.57-28.93a8,8,0,0,0,.14-1.49c0-.41-.54-.68-1.22-.95a15.91,15.91,0,0,0-5.14-1.08c-1.35,0-1.62.68-3.79.68-.54,0-.68,0-1.49,1.76-4.6,9.87-8.25,20.42-11.49,28.66-1.08,2.84-1.76,4.87-2.16,6.35a2.21,2.21,0,0,1-2.3,1.89c-2.43,0-5.81-2.16-8.79-2.16a5.33,5.33,0,0,0-2.7.68c-1.08.54-1.62.81-1.62,1.76a1.87,1.87,0,0,0,.68,1.62c3.11,2.57,3.92,6.08,8.79,8.52.54.27.68.54.68.81a3.43,3.43,0,0,1-.27.95c-3.4,8.19-5.64,17.21-8.08,25.56a3.33,3.33,0,0,0,.1-.82,2.13,2.13,0,0,0-.81-1.89,5.81,5.81,0,0,0-3.38-.95c-2.16,0-3.11.68-6.35,3-5.41,3.79-6.9,4.6-9.87,4.6-2.3,0-2.43-3.11-2.43-4.33,0-2,.95-7.17,3.24-13.25,1.89-5,5.68-14.2,8-19.2,3.11-6.62,8.65-10,8.65-17.17a2.3,2.3,0,0,0-1.08-2.16,6.77,6.77,0,0,0-4.06-1.08c-2.57,0-5.41.81-6.76,3.65-5,10.41-8.92,20.15-13.12,30-.81,1.89-1.35,4.19-2.3,6.76a30.58,30.58,0,0,0-2.16,11,20.4,20.4,0,0,0,.68,5.68c1.49,5,6.08,10.68,10.14,10.68,6.08,0,11.09-3.92,13.93-6.49l5.54-5.14a7.52,7.52,0,0,0,2-2.54c-.64,2.16-1.29,4.28-2,6.32a14.59,14.59,0,0,0-.54,4.06,3.9,3.9,0,0,0,1.49,3.25,9.41,9.41,0,0,0,4.87,1.49,5.42,5.42,0,0,0,2-.41c1.89-.95,3.25-4.46,3.38-5.68.81-6.76,5.41-18.25,6.22-22.71.27-1.49,1.08-2.84,1.49-4.33a28.58,28.58,0,0,1,2.3-6.49,4.38,4.38,0,0,1,2.57-2c2.84-.95,14.33-3.52,21-6.08.6-.23,1.06-.44,1.45-.63a174.07,174.07,0,0,0-10.24,18.07,27,27,0,0,0-1.62,5.27c-.95,3.38-2.16,6.9-2.16,10.14a13.87,13.87,0,0,0,1.62,6.35c.68,1.35,6.22,6.62,13.66,6.62,5.68,0,12.44-3.92,20-10a120.81,120.81,0,0,1,10.46-7.89c-.85,2.71-1.6,5.38-2.21,8-.54,2.3-1.22,2.16-1.22,3.65a2.25,2.25,0,0,0,.54,1.49,17.11,17.11,0,0,0,7,3.79,10.59,10.59,0,0,0,5.14-1.76,4.5,4.5,0,0,0,1.49-1.35c8-9.33,17.31-25,26.5-35.56.95-1.08,1.49-1.49,1.76-1.49a.29.29,0,0,1,.27.27,5.08,5.08,0,0,1-.54,1.62,129.57,129.57,0,0,0-5,13.93,54.39,54.39,0,0,0-2.57,15.14c0,6.63,2.16,11,7.3,12.84a10.71,10.71,0,0,0,3.92.95c1.76,0,3.11-.68,4.73-1.08a4.09,4.09,0,0,0,2.57-1.89,5.8,5.8,0,0,0,.68-1.76,1.28,1.28,0,0,0-.95-1.08,20.72,20.72,0,0,1-3.38-.81c-2-1.08-3.38-2.43-3.38-8.92,0-9.19,3.38-20.28,7-28.93,1.08-2.57,1.62-5,3.52-8.25,2.43-4.19,4.06-6.9,4.06-10.82A3.51,3.51,0,0,0,577.59,226.22Z" transform="translate(-5 -5.96)"/><path class="cls-4" d="M681.43,241a10.67,10.67,0,0,0,1.35-3.52c0-1.62-1.22-3.52-2.7-3.65-2.16-.14-2.84-1.35-4.87-1.35-1.76,0-2.3.41-4.73,5.54-3,6.35-13,11.76-31.23,37.72-.95,1.35-1.49,1.76-2.3,1.76-.41,0-.41-.81-.41-1.35a89,89,0,0,1,2.7-9.46,209.37,209.37,0,0,1,9.6-21.09,62.6,62.6,0,0,1,8.65-12.17,9.73,9.73,0,0,0,3-6.35,8.2,8.2,0,0,0-.68-2.43c-.54-1.22-2.3-2-5.41-2a7.06,7.06,0,0,0-4.73,1.35c-1.22,1.08-1.08,1.35-2.16,3a146.75,146.75,0,0,0-13.12,24.88c-1,2.2-2.17,5.07-3.3,8-7.59,5.09-13.18,12-22.11,16.78-6.08,3.24-8.11,3.79-10.41,3.79a8.42,8.42,0,0,1-4.19-1.08,8.24,8.24,0,0,1-3.25-5.68c0-.41.14-.68.81-1.08,11.49-6.35,22-18.12,31.37-28.66a26.38,26.38,0,0,0,4.33-6.35c1.62-3.25,3.11-6.22,3.11-9.74,0-5.41-2.84-7.84-4.33-8.38a21.26,21.26,0,0,0-22.72,4.6c-10.28,11-19.47,22.85-23.26,36.64a15.5,15.5,0,0,0-.68,4.46,40.64,40.64,0,0,0,1.62,10.41c1.49,4.46,4.06,7.84,6.76,9.33a91.15,91.15,0,0,0,8.65,3.79,13,13,0,0,0,5.14.95c1.76,0,2.43,0,4.87-1.35,9.91-5.48,15.7-9.89,19.77-13.6a14.26,14.26,0,0,0-.44,3.73,7.6,7.6,0,0,0,.95,3.92c1.76,2.16,8.11,6.22,9.73,6.22,1.22,0,3.92-.27,5-1.49,1.89-2,3-1.89,5.81-5.95,3.24-4.6,6.9-9.19,12.44-16.5.41-.54.54-.54.81-.54s.41.27.41.54-1.22,2.7-1.22,10.68c0,3.38.68,6.22,2.3,8.38,1.76,2.43,3.38,3,5.27,4.73,1.62,1.49,5.95,1.89,7,1.89a3.5,3.5,0,0,0,3.52-3.25c0-1.35-.95-2.3-2-3.11s-4.33-2.43-4.73-4.87a24.82,24.82,0,0,1-1.08-5.81A62.62,62.62,0,0,1,672,261C674,254.07,676.56,248.93,681.43,241ZM613,229.05c1.35-1.22,1.22-.81,2.7-1.76a5.39,5.39,0,0,1,2.84-1.22c.81,0,.81.54.81,1.62,0,2.43-1.08,4.19-2.43,6.22-1.76,2.7-1.22,3.11-3.25,5.54-6.08,7.3-12.71,14.74-20.69,20.82a1.8,1.8,0,0,1-.95.41c-.14,0-.27-.13-.27-.68C594.76,248,604.23,236.9,613,229.05Z" transform="translate(-5 -5.96)"/><path class="cls-4" d="M345.45,11.17c-1,.75-.92,2.44-1,3.67-.47,13.23-.82,26.46-1.29,39.68-.34,9.71-.33,19.46-1.36,29.1-.91,8.47-3.87,16.75-4.47,25.21-.85,12-.39,24.15-.47,36.24,0,5.2-1.18,7.42-4.08,7-4.14-.56-3.59-4.13-3.89-7-1.49-14.19,2.12-27.54,6.43-40.85a29.38,29.38,0,0,0,1.09-11.46c-.8-8.64-2.24-17.22-3.4-25.83-1.48-11-1.73-22.12,1.43-32.87,2.52-8.56,2.83-18.08,9.73-25,.51-.52.43-1.63.62-2.47-.25-.22-.42-.65-.75-.67-1.54-.05-2.79,1.66-3.61,2.87-2,3-4.24,6-5.46,9.39-5.77,15.94-10.34,32.19-9.4,49.39.38,6.94.68,13.88,5,20.06,3.08,4.35,3.5,9.65,2,15s-2.76,10.8-4.26,16.17a68.17,68.17,0,0,0-1.22,29.37c.84,5.26,3.64,8.5,7.75,9.08,4.31.6,6.86-1.14,9.48-6.42,3.77-7.62,3.43-15.61,2-23.65-1.74-10-4.7-19.79-3.51-30.05.52-4.49,2.07-8.89,2.35-13.37,1-15.95,1.9-31.91,2.37-47.88.25-8.21-.48-16.44-.76-24.66C346.39,11.2,345.83,10.89,345.45,11.17Z" transform="translate(-5 -5.96)"/><path class="cls-4" d="M375.76,85.81a75.82,75.82,0,0,0-.36-8.17l-1.29-.22a8.81,8.81,0,0,0-1,2.33,124.81,124.81,0,0,0-1.41,13.52c-.18,13.76,0,27.53-.11,41.29a59.07,59.07,0,0,1-1,7.48h-2c-5.6-17.94,0-36.21-.3-55.28a13.43,13.43,0,0,0-1.1,2.21c-1.37,7.12-2.76,14.24-4,21.38-1.71,9.66-2.56,19.31.8,28.84,1,2.93,2.33,5.51,6,5.81s5.75-1.89,7.41-4.69c3-5.13,3.08-10.82,1.86-16.27A137.13,137.13,0,0,1,375.76,85.81Z" transform="translate(-5 -5.96)"/><path class="cls-4" d="M311.2,103.54c-1.26-7.08-1.83-14.29-2.84-22.55-3,16.16-1.5,31.16-.36,46.14.55,7.18,2,14.53-5.49,19.71,3.66,1.31,7,1.47,9.2-1.08,4.16-4.73,6.6-10.16,5-16.8C314.73,120.52,312.73,112.07,311.2,103.54Z" transform="translate(-5 -5.96)"/><path class="cls-4" d="M303.49,85.37c.58-2.7-.68-6-1.68-8.77-1.43-4-4.46-7.64-4.92-11.66-.85-7.41-.34-15-.39-22.49,0-3.1,0-6.2,0-9.3-.44,0-.93-.33-1.32-.1a2.07,2.07,0,0,0-.72,1.58c-1.54,13.94-1.8,27.91,3.15,41.21a36.32,36.32,0,0,1,.82,24.33c-4,13-2.1,25.94.77,38.81.25,1.13.65,3.88,2.43,3.54,1.08-.21.41-1.33.37-1.54C297.87,122.31,299.55,103.85,303.49,85.37Z" transform="translate(-5 -5.96)"/><path class="cls-4" d="M382.66,44.93c-1.89-5-5.3-8.71-11.28-9.93,2.48,6.59,7.11,12.68,6.14,19.94-.94,7.08-3,14-4.5,20.92,3.34.37,6.66-1.52,9-6.38C385.83,61.45,385.74,53.15,382.66,44.93Z" transform="translate(-5 -5.96)"/><path class="cls-4" d="M366.92,35.94c-7.08.6-12.1,8.49-12.09,17.82S357.41,75,366.77,76.64C357.4,62.62,355.68,46.71,366.92,35.94Z" transform="translate(-5 -5.96)"/><path class="cls-4" d="M303.82,31.3l-1.78,0V65.19h1.16C305.24,53.91,304.54,42.6,303.82,31.3Z" transform="translate(-5 -5.96)"/><path class="cls-4" d="M317.13,61.57q.06-14.18-.09-28.35c0-.71-.75-1.42-1.5-2.72-2.09,8.13-1.69,28.18.61,34.32A13.38,13.38,0,0,0,317.13,61.57Z" transform="translate(-5 -5.96)"/><path class="cls-4" d="M308.47,31.06V63.77C311.22,59.33,312.1,35.68,308.47,31.06Z" transform="translate(-5 -5.96)"/><path class="cls-4" d="M367.83,69.55l-3.16-14.19C361,59.1,362.3,65.33,367.83,69.55Z" transform="translate(-5 -5.96)"/><path class="cls-4" d="M315.23,66.72l-6.72,7.64C313.1,74.25,315.37,71.68,315.23,66.72Z" transform="translate(-5 -5.96)"/></svg>